<svg width="24" height="25" viewBox="0 0 24 25" fill="none" xmlns="http://www.w3.org/2000/svg">
<rect width="24" height="25" fill="#F5F5F5"/>
<g id="Dashboard" clip-path="url(#clip0_0_1)">
<rect width="1440" height="1158" transform="translate(-304 -45)" fill="#F8F8F7"/>
<g id="Header" filter="url(#filter0_d_0_1)">
<rect width="1440" height="115" transform="translate(-304 -45)" fill="white"/>
<g id="Frame 13">
<g id="Frame 12">
<g id="Button">
<rect width="141" height="51" transform="translate(-16 -13)" fill="#CCD5AE"/>
<g id="Plus">
<path id="Vector" fill-rule="evenodd" clip-rule="evenodd" d="M11.9996 4.09998C12.3179 4.09998 12.6231 4.2264 12.8481 4.45145C13.0732 4.67649 13.1996 4.98172 13.1996 5.29998V11.3H19.1996C19.5179 11.3 19.8231 11.4264 20.0481 11.6514C20.2732 11.8765 20.3996 12.1817 20.3996 12.5C20.3996 12.8182 20.2732 13.1235 20.0481 13.3485C19.8231 13.5735 19.5179 13.7 19.1996 13.7H13.1996V19.7C13.1996 20.0182 13.0732 20.3235 12.8481 20.5485C12.6231 20.7735 12.3179 20.9 11.9996 20.9C11.6813 20.9 11.3761 20.7735 11.1511 20.5485C10.926 20.3235 10.7996 20.0182 10.7996 19.7V13.7H4.79961C4.48135 13.7 4.17612 13.5735 3.95108 13.3485C3.72604 13.1235 3.59961 12.8182 3.59961 12.5C3.59961 12.1817 3.72604 11.8765 3.95108 11.6514C4.17612 11.4264 4.48135 11.3 4.79961 11.3H10.7996V5.29998C10.7996 4.98172 10.926 4.67649 11.1511 4.45145C11.3761 4.2264 11.6813 4.09998 11.9996 4.09998Z" fill="black"/>
</g>
</g>
</g>
</g>
</g>
</g>
<defs>
<filter id="filter0_d_0_1" x="-332" y="-72" width="1496" height="171" filterUnits="userSpaceOnUse" color-interpolation-filters="sRGB">
<feFlood flood-opacity="0" result="BackgroundImageFix"/>
<feColorMatrix in="SourceAlpha" type="matrix" values="0 0 0 0 0 0 0 0 0 0 0 0 0 0 0 0 0 0 127 0" result="hardAlpha"/>
<feOffset dy="1"/>
<feGaussianBlur stdDeviation="14"/>
<feComposite in2="hardAlpha" operator="out"/>
<feColorMatrix type="matrix" values="0 0 0 0 0 0 0 0 0 0 0 0 0 0 0 0 0 0 0.05 0"/>
<feBlend mode="normal" in2="BackgroundImageFix" result="effect1_dropShadow_0_1"/>
<feBlend mode="normal" in="SourceGraphic" in2="effect1_dropShadow_0_1" result="shape"/>
</filter>
<clipPath id="clip0_0_1">
<rect width="1440" height="1158" fill="white" transform="translate(-304 -45)"/>
</clipPath>
</defs>
</svg>
